<svg xmlns="http://www.w3.org/2000/svg" width="512" height="512" viewBox="0 0 512 512"><style>:root{--band-fill:#000;--icon-color:#000;}</style>
<g transform="translate(0.00,0.00) scale(0.500000)">
<path d="M 306.00 888.00 L 308.00 890.00 L 308.00 893.00 L 307.00 894.00 L 308.00 896.00 L 307.00 898.00 L 309.00 899.00 L 309.00 902.00 L 308.00 903.00 L 307.00 901.00 L 307.00 903.00 L 309.00 903.00 L 312.00 907.00 L 315.00 907.00 L 316.00 908.00 L 328.00 908.00 L 329.00 909.00 L 328.00 910.00 L 326.00 910.00 L 332.00 910.00 L 330.00 910.00 L 329.00 909.00 L 330.00 908.00 L 337.00 908.00 L 338.00 909.00 L 337.00 910.00 L 334.00 910.00 L 359.00 910.00 L 360.00 911.00 L 362.00 910.00 L 364.00 911.00 L 365.00 910.00 L 383.00 910.00 L 384.00 911.00 L 385.00 910.00 L 389.00 910.00 L 390.00 911.00 L 391.00 910.00 L 392.00 911.00 L 393.00 910.00 L 443.00 910.00 L 444.00 911.00 L 445.00 910.00 L 455.00 910.00 L 456.00 911.00 L 458.00 911.00 L 459.00 910.00 L 465.00 910.00 L 466.00 911.00 L 467.00 910.00 L 476.00 910.00 L 475.00 909.00 L 476.00 908.00 L 480.00 908.00 L 481.00 909.00 L 480.00 910.00 L 478.00 910.00 L 483.00 910.00 L 484.00 911.00 L 485.00 910.00 L 593.00 910.00 L 594.00 911.00 L 596.00 910.00 L 679.00 910.00 L 681.00 911.00 L 682.00 910.00 L 697.00 910.00 L 692.00 910.00 L 691.00 909.00 L 692.00 908.00 L 707.00 908.00 L 708.00 907.00 L 711.00 907.00 L 714.00 904.00 L 715.00 902.00 L 715.00 898.00 L 716.00 897.00 L 716.00 873.00 L 715.00 872.00 L 716.00 871.00 L 716.00 866.00 L 715.00 865.00 L 715.00 861.00 L 711.00 856.00 L 695.00 856.00 L 694.00 855.00 L 693.00 856.00 L 687.00 856.00 L 686.00 855.00 L 684.00 855.00 L 683.00 856.00 L 681.00 856.00 L 680.00 855.00 L 679.00 856.00 L 671.00 856.00 L 670.00 855.00 L 669.00 856.00 L 665.00 856.00 L 664.00 855.00 L 663.00 856.00 L 662.00 855.00 L 661.00 856.00 L 660.00 855.00 L 659.00 856.00 L 657.00 856.00 L 656.00 855.00 L 655.00 856.00 L 647.00 856.00 L 646.00 855.00 L 645.00 856.00 L 639.00 856.00 L 638.00 855.00 L 637.00 856.00 L 623.00 856.00 L 622.00 855.00 L 620.00 856.00 L 617.00 856.00 L 616.00 855.00 L 615.00 856.00 L 614.00 855.00 L 613.00 856.00 L 612.00 855.00 L 611.00 856.00 L 583.00 856.00 L 582.00 855.00 L 580.00 856.00 L 577.00 856.00 L 576.00 855.00 L 575.00 856.00 L 574.00 855.00 L 573.00 856.00 L 569.00 856.00 L 568.00 855.00 L 567.00 856.00 L 565.00 855.00 L 564.00 856.00 L 561.00 856.00 L 560.00 855.00 L 559.00 856.00 L 558.00 855.00 L 556.00 856.00 L 551.00 856.00 L 550.00 855.00 L 549.00 856.00 L 545.00 856.00 L 544.00 855.00 L 543.00 856.00 L 542.00 855.00 L 541.00 856.00 L 540.00 855.00 L 539.00 856.00 L 535.00 856.00 L 534.00 855.00 L 532.00 855.00 L 531.00 856.00 L 527.00 856.00 L 526.00 855.00 L 524.00 856.00 L 519.00 856.00 L 518.00 855.00 L 517.00 856.00 L 512.00 856.00 L 511.00 855.00 L 508.00 855.00 L 507.00 856.00 L 506.00 855.00 L 505.00 856.00 L 504.00 855.00 L 503.00 856.00 L 502.00 855.00 L 498.00 855.00 L 497.00 856.00 L 496.00 855.00 L 495.00 856.00 L 494.00 855.00 L 492.00 855.00 L 491.00 856.00 L 487.00 856.00 L 486.00 855.00 L 484.00 855.00 L 483.00 856.00 L 481.00 856.00 L 480.00 855.00 L 479.00 856.00 L 478.00 855.00 L 476.00 855.00 L 475.00 856.00 L 473.00 856.00 L 472.00 855.00 L 471.00 856.00 L 470.00 855.00 L 468.00 855.00 L 467.00 856.00 L 465.00 856.00 L 464.00 855.00 L 463.00 856.00 L 462.00 855.00 L 460.00 855.00 L 459.00 856.00 L 457.00 856.00 L 456.00 855.00 L 455.00 856.00 L 447.00 856.00 L 446.00 855.00 L 445.00 856.00 L 444.00 855.00 L 443.00 856.00 L 441.00 856.00 L 440.00 855.00 L 439.00 856.00 L 438.00 855.00 L 436.00 855.00 L 435.00 856.00 L 430.00 856.00 L 429.00 855.00 L 427.00 856.00 L 425.00 856.00 L 424.00 855.00 L 423.00 856.00 L 422.00 855.00 L 420.00 856.00 L 417.00 856.00 L 416.00 855.00 L 415.00 856.00 L 414.00 855.00 L 413.00 856.00 L 412.00 855.00 L 411.00 856.00 L 407.00 856.00 L 406.00 855.00 L 404.00 855.00 L 403.00 856.00 L 402.00 855.00 L 401.00 856.00 L 400.00 855.00 L 399.00 856.00 L 398.00 855.00 L 396.00 856.00 L 389.00 856.00 L 388.00 855.00 L 387.00 856.00 L 383.00 856.00 L 382.00 855.00 L 380.00 856.00 L 375.00 856.00 L 374.00 855.00 L 373.00 856.00 L 367.00 856.00 L 366.00 855.00 L 362.00 855.00 L 361.00 856.00 L 360.00 855.00 L 359.00 856.00 L 358.00 855.00 L 357.00 856.00 L 353.00 856.00 L 352.00 855.00 L 351.00 856.00 L 349.00 855.00 L 348.00 856.00 L 347.00 855.00 L 345.00 856.00 L 344.00 855.00 L 343.00 856.00 L 342.00 855.00 L 340.00 855.00 L 338.00 856.00 L 336.00 855.00 L 335.00 856.00 L 334.00 855.00 L 330.00 855.00 L 329.00 856.00 L 328.00 855.00 L 327.00 856.00 L 326.00 855.00 L 322.00 855.00 L 321.00 856.00 L 320.00 855.00 L 316.00 855.00 L 312.00 857.00 L 309.00 861.00 L 309.00 870.00 L 308.00 871.00 L 309.00 872.00 L 308.00 874.00 L 309.00 875.00 L 308.00 876.00 L 308.00 880.00 L 307.00 881.00 L 308.00 880.00 L 309.00 882.00 L 308.00 883.00 L 308.00 888.00 L 307.00 889.00 Z M 689.00 909.00 L 690.00 908.00 L 691.00 909.00 L 690.00 910.00 Z M 681.00 909.00 L 682.00 908.00 L 688.00 908.00 L 689.00 909.00 L 688.00 910.00 L 682.00 910.00 Z M 674.00 909.00 L 675.00 908.00 L 680.00 908.00 L 681.00 909.00 L 680.00 910.00 L 675.00 910.00 Z M 666.00 909.00 L 667.00 908.00 L 673.00 908.00 L 674.00 909.00 L 673.00 910.00 L 667.00 910.00 Z M 659.00 909.00 L 660.00 908.00 L 665.00 908.00 L 666.00 909.00 L 665.00 910.00 L 660.00 910.00 Z M 650.00 909.00 L 651.00 908.00 L 656.00 908.00 L 657.00 909.00 L 656.00 910.00 L 651.00 910.00 Z M 643.00 909.00 L 644.00 908.00 L 648.00 908.00 L 649.00 909.00 L 648.00 910.00 L 644.00 910.00 Z M 627.00 909.00 L 628.00 908.00 L 640.00 908.00 L 641.00 909.00 L 640.00 910.00 L 628.00 910.00 Z M 619.00 909.00 L 620.00 908.00 L 623.00 908.00 L 624.00 909.00 L 623.00 910.00 L 620.00 910.00 Z M 610.00 909.00 L 611.00 908.00 L 616.00 908.00 L 617.00 909.00 L 616.00 910.00 L 611.00 910.00 Z M 607.00 909.00 L 608.00 908.00 L 610.00 909.00 L 609.00 910.00 Z M 604.00 909.00 L 605.00 908.00 L 607.00 909.00 L 606.00 910.00 Z M 597.00 909.00 L 598.00 908.00 L 600.00 908.00 L 601.00 909.00 L 600.00 910.00 L 598.00 910.00 Z M 594.00 909.00 L 595.00 908.00 L 597.00 909.00 L 596.00 910.00 Z M 587.00 909.00 L 588.00 908.00 L 591.00 908.00 L 592.00 909.00 L 591.00 910.00 L 588.00 910.00 Z M 583.00 909.00 L 584.00 908.00 L 585.00 909.00 L 584.00 910.00 Z M 579.00 909.00 L 580.00 908.00 L 582.00 908.00 L 583.00 909.00 L 582.00 910.00 L 580.00 910.00 Z M 571.00 909.00 L 572.00 908.00 L 575.00 908.00 L 576.00 909.00 L 575.00 910.00 L 572.00 910.00 Z M 563.00 909.00 L 564.00 908.00 L 568.00 908.00 L 569.00 909.00 L 568.00 910.00 L 564.00 910.00 Z M 557.00 909.00 L 558.00 908.00 L 560.00 908.00 L 561.00 909.00 L 560.00 910.00 L 558.00 910.00 Z M 554.00 909.00 L 555.00 908.00 L 557.00 909.00 L 556.00 910.00 Z M 547.00 909.00 L 548.00 908.00 L 552.00 908.00 L 553.00 909.00 L 552.00 910.00 L 548.00 910.00 Z M 539.00 909.00 L 540.00 908.00 L 544.00 908.00 L 545.00 909.00 L 544.00 910.00 L 540.00 910.00 Z M 531.00 909.00 L 532.00 908.00 L 535.00 908.00 L 536.00 909.00 L 535.00 910.00 L 532.00 910.00 Z M 527.00 909.00 L 528.00 908.00 L 529.00 909.00 L 528.00 910.00 Z M 525.00 909.00 L 526.00 908.00 L 527.00 909.00 L 526.00 910.00 Z M 523.00 909.00 L 524.00 908.00 L 525.00 909.00 L 524.00 910.00 Z M 514.00 909.00 L 515.00 908.00 L 520.00 908.00 L 521.00 909.00 L 520.00 910.00 L 515.00 910.00 Z M 507.00 909.00 L 508.00 908.00 L 512.00 908.00 L 513.00 909.00 L 512.00 910.00 L 508.00 910.00 Z M 498.00 909.00 L 499.00 908.00 L 504.00 908.00 L 505.00 909.00 L 504.00 910.00 L 499.00 910.00 Z M 491.00 909.00 L 492.00 908.00 L 496.00 908.00 L 497.00 909.00 L 496.00 910.00 L 492.00 910.00 Z M 483.00 909.00 L 484.00 908.00 L 487.00 908.00 L 488.00 909.00 L 487.00 910.00 L 484.00 910.00 Z M 471.00 909.00 L 472.00 908.00 L 474.00 909.00 L 473.00 910.00 Z M 467.00 909.00 L 468.00 908.00 L 470.00 908.00 L 471.00 909.00 L 470.00 910.00 L 468.00 910.00 Z M 459.00 909.00 L 460.00 908.00 L 464.00 908.00 L 465.00 909.00 L 464.00 910.00 L 460.00 910.00 Z M 451.00 909.00 L 452.00 908.00 L 456.00 908.00 L 457.00 909.00 L 456.00 910.00 L 452.00 910.00 Z M 443.00 909.00 L 444.00 908.00 L 450.00 908.00 L 451.00 909.00 L 450.00 910.00 L 444.00 910.00 Z M 437.00 909.00 L 438.00 908.00 L 440.00 908.00 L 441.00 909.00 L 440.00 910.00 L 438.00 910.00 Z M 435.00 909.00 L 436.00 908.00 L 437.00 909.00 L 436.00 910.00 Z M 426.00 909.00 L 427.00 908.00 L 432.00 908.00 L 433.00 909.00 L 432.00 910.00 L 427.00 910.00 Z M 420.00 909.00 L 421.00 908.00 L 424.00 908.00 L 425.00 909.00 L 424.00 910.00 L 421.00 910.00 Z M 411.00 909.00 L 412.00 908.00 L 416.00 908.00 L 417.00 909.00 L 416.00 910.00 L 412.00 910.00 Z M 402.00 909.00 L 403.00 908.00 L 410.00 908.00 L 411.00 909.00 L 410.00 910.00 L 403.00 910.00 Z M 394.00 909.00 L 395.00 908.00 L 400.00 908.00 L 401.00 909.00 L 400.00 910.00 L 395.00 910.00 Z M 389.00 909.00 L 390.00 908.00 L 393.00 908.00 L 394.00 909.00 L 393.00 910.00 L 390.00 910.00 Z M 379.00 909.00 L 380.00 908.00 L 383.00 908.00 L 384.00 909.00 L 383.00 910.00 L 380.00 910.00 Z M 375.00 909.00 L 376.00 908.00 L 377.00 909.00 L 376.00 910.00 Z M 373.00 909.00 L 374.00 908.00 L 375.00 909.00 L 374.00 910.00 Z M 362.00 909.00 L 363.00 908.00 L 368.00 908.00 L 369.00 909.00 L 368.00 910.00 L 363.00 910.00 Z M 355.00 909.00 L 356.00 908.00 L 361.00 908.00 L 362.00 909.00 L 361.00 910.00 L 356.00 910.00 Z M 347.00 909.00 L 348.00 908.00 L 352.00 908.00 L 353.00 909.00 L 352.00 910.00 L 348.00 910.00 Z M 338.00 909.00 L 339.00 908.00 L 346.00 908.00 L 347.00 909.00 L 346.00 910.00 L 339.00 910.00 Z M 307.00 889.00 L 308.00 888.00 L 309.00 889.00 L 308.00 890.00 Z M 328.00 832.00 L 329.00 833.00 L 329.00 832.00 Z M 448.00 568.00 L 449.00 569.00 L 449.00 568.00 Z M 491.00 128.00 L 492.00 129.00 L 491.00 130.00 L 488.00 131.00 L 480.00 138.00 L 479.00 138.00 L 473.00 146.00 L 472.00 145.00 L 473.00 146.00 L 469.00 153.00 L 468.00 159.00 L 467.00 160.00 L 466.00 170.00 L 465.00 171.00 L 464.00 170.00 L 464.00 171.00 L 466.00 172.00 L 466.00 174.00 L 467.00 175.00 L 467.00 180.00 L 468.00 181.00 L 469.00 186.00 L 472.00 192.00 L 474.00 194.00 L 473.00 196.00 L 472.00 195.00 L 473.00 197.00 L 474.00 195.00 L 476.00 198.00 L 475.00 199.00 L 476.00 198.00 L 482.00 204.00 L 481.00 205.00 L 482.00 204.00 L 485.00 206.00 L 484.00 207.00 L 485.00 206.00 L 486.00 207.00 L 485.00 209.00 L 486.00 211.00 L 470.00 223.00 L 466.00 227.00 L 464.00 226.00 L 465.00 227.00 L 459.00 233.00 L 457.00 232.00 L 458.00 233.00 L 450.00 241.00 L 449.00 240.00 L 450.00 241.00 L 445.00 246.00 L 445.00 247.00 L 443.00 248.00 L 443.00 249.00 L 438.00 254.00 L 438.00 255.00 L 428.00 267.00 L 422.00 276.00 L 419.00 283.00 L 417.00 285.00 L 417.00 287.00 L 415.00 289.00 L 415.00 291.00 L 412.00 296.00 L 411.00 301.00 L 408.00 307.00 L 408.00 310.00 L 407.00 311.00 L 407.00 314.00 L 405.00 319.00 L 405.00 323.00 L 404.00 324.00 L 404.00 330.00 L 403.00 331.00 L 403.00 357.00 L 404.00 358.00 L 404.00 364.00 L 405.00 365.00 L 405.00 369.00 L 404.00 370.00 L 403.00 369.00 L 404.00 370.00 L 405.00 369.00 L 406.00 370.00 L 406.00 373.00 L 411.00 386.00 L 410.00 388.00 L 409.00 387.00 L 410.00 388.00 L 410.00 390.00 L 411.00 391.00 L 412.00 390.00 L 414.00 393.00 L 413.00 395.00 L 414.00 394.00 L 416.00 396.00 L 416.00 398.00 L 418.00 400.00 L 421.00 406.00 L 427.00 414.00 L 433.00 420.00 L 432.00 421.00 L 433.00 423.00 L 435.00 422.00 L 438.00 425.00 L 438.00 439.00 L 437.00 440.00 L 433.00 440.00 L 432.00 441.00 L 426.00 441.00 L 425.00 440.00 L 423.00 440.00 L 425.00 441.00 L 424.00 442.00 L 422.00 442.00 L 417.00 445.00 L 412.00 453.00 L 412.00 455.00 L 411.00 456.00 L 411.00 463.00 L 409.00 464.00 L 411.00 463.00 L 412.00 464.00 L 412.00 467.00 L 414.00 471.00 L 421.00 478.00 L 425.00 480.00 L 430.00 480.00 L 431.00 481.00 L 433.00 480.00 L 448.00 480.00 L 449.00 481.00 L 448.00 482.00 L 449.00 484.00 L 450.00 482.00 L 453.00 486.00 L 453.00 488.00 L 455.00 492.00 L 455.00 495.00 L 456.00 496.00 L 456.00 503.00 L 457.00 504.00 L 457.00 530.00 L 456.00 531.00 L 456.00 541.00 L 455.00 542.00 L 455.00 549.00 L 454.00 550.00 L 454.00 556.00 L 453.00 557.00 L 452.00 566.00 L 451.00 567.00 L 450.00 574.00 L 448.00 578.00 L 448.00 581.00 L 446.00 585.00 L 446.00 588.00 L 445.00 589.00 L 442.00 599.00 L 440.00 600.00 L 441.00 602.00 L 439.00 605.00 L 437.00 612.00 L 433.00 619.00 L 432.00 618.00 L 433.00 620.00 L 431.00 623.00 L 431.00 625.00 L 429.00 627.00 L 419.00 646.00 L 416.00 648.00 L 417.00 649.00 L 411.00 658.00 L 409.00 660.00 L 408.00 659.00 L 409.00 660.00 L 408.00 662.00 L 402.00 669.00 L 401.00 668.00 L 402.00 669.00 L 401.00 671.00 L 399.00 672.00 L 399.00 673.00 L 391.00 682.00 L 389.00 681.00 L 390.00 683.00 L 374.00 698.00 L 373.00 698.00 L 368.00 705.00 L 368.00 714.00 L 369.00 715.00 L 368.00 717.00 L 369.00 716.00 L 372.00 720.00 L 380.00 725.00 L 385.00 730.00 L 386.00 732.00 L 386.00 736.00 L 387.00 737.00 L 385.00 742.00 L 379.00 749.00 L 378.00 749.00 L 374.00 753.00 L 372.00 752.00 L 373.00 753.00 L 369.00 757.00 L 368.00 757.00 L 354.00 769.00 L 353.00 768.00 L 354.00 769.00 L 349.00 774.00 L 348.00 773.00 L 349.00 775.00 L 345.00 779.00 L 344.00 778.00 L 345.00 779.00 L 341.00 784.00 L 335.00 796.00 L 335.00 798.00 L 333.00 802.00 L 333.00 806.00 L 332.00 807.00 L 332.00 829.00 L 331.00 830.00 L 332.00 831.00 L 332.00 835.00 L 331.00 836.00 L 330.00 835.00 L 336.00 840.00 L 687.00 840.00 L 691.00 836.00 L 691.00 834.00 L 692.00 833.00 L 692.00 813.00 L 691.00 812.00 L 691.00 806.00 L 688.00 798.00 L 688.00 795.00 L 684.00 787.00 L 678.00 778.00 L 669.00 769.00 L 670.00 768.00 L 669.00 769.00 L 663.00 763.00 L 650.00 753.00 L 651.00 752.00 L 650.00 753.00 L 648.00 752.00 L 639.00 743.00 L 639.00 741.00 L 638.00 740.00 L 638.00 738.00 L 639.00 737.00 L 638.00 732.00 L 639.00 730.00 L 644.00 725.00 L 648.00 723.00 L 654.00 718.00 L 655.00 719.00 L 654.00 717.00 L 657.00 711.00 L 656.00 710.00 L 656.00 706.00 L 653.00 701.00 L 640.00 689.00 L 641.00 688.00 L 640.00 689.00 L 621.00 669.00 L 615.00 661.00 L 614.00 656.00 L 613.00 658.00 L 599.00 637.00 L 588.00 615.00 L 588.00 613.00 L 582.00 600.00 L 582.00 598.00 L 578.00 588.00 L 579.00 584.00 L 578.00 586.00 L 576.00 582.00 L 576.00 579.00 L 574.00 575.00 L 573.00 567.00 L 571.00 562.00 L 571.00 557.00 L 570.00 556.00 L 570.00 551.00 L 569.00 550.00 L 569.00 544.00 L 568.00 543.00 L 568.00 534.00 L 567.00 533.00 L 567.00 504.00 L 568.00 503.00 L 568.00 496.00 L 569.00 495.00 L 570.00 488.00 L 573.00 483.00 L 574.00 484.00 L 573.00 483.00 L 576.00 480.00 L 596.00 480.00 L 603.00 477.00 L 610.00 469.00 L 611.00 464.00 L 612.00 463.00 L 612.00 455.00 L 611.00 454.00 L 611.00 452.00 L 605.00 444.00 L 601.00 442.00 L 599.00 442.00 L 598.00 440.00 L 597.00 441.00 L 594.00 441.00 L 593.00 440.00 L 592.00 441.00 L 591.00 440.00 L 587.00 440.00 L 586.00 439.00 L 586.00 424.00 L 596.00 415.00 L 596.00 414.00 L 603.00 406.00 L 612.00 390.00 L 612.00 388.00 L 615.00 383.00 L 615.00 381.00 L 616.00 380.00 L 617.00 381.00 L 616.00 380.00 L 616.00 378.00 L 617.00 377.00 L 617.00 374.00 L 619.00 369.00 L 620.00 358.00 L 621.00 357.00 L 621.00 333.00 L 620.00 332.00 L 620.00 325.00 L 619.00 324.00 L 619.00 320.00 L 618.00 319.00 L 617.00 311.00 L 616.00 310.00 L 613.00 299.00 L 610.00 294.00 L 610.00 292.00 L 604.00 281.00 L 605.00 279.00 L 604.00 278.00 L 603.00 279.00 L 602.00 278.00 L 600.00 273.00 L 596.00 267.00 L 586.00 255.00 L 586.00 254.00 L 574.00 241.00 L 575.00 240.00 L 574.00 241.00 L 565.00 233.00 L 566.00 232.00 L 565.00 233.00 L 561.00 229.00 L 560.00 229.00 L 557.00 226.00 L 558.00 225.00 L 557.00 226.00 L 542.00 215.00 L 537.00 210.00 L 537.00 209.00 L 543.00 203.00 L 544.00 203.00 L 544.00 202.00 L 552.00 193.00 L 556.00 185.00 L 557.00 179.00 L 558.00 178.00 L 558.00 163.00 L 557.00 162.00 L 556.00 155.00 L 550.00 144.00 L 551.00 143.00 L 550.00 144.00 L 543.00 136.00 L 536.00 131.00 L 524.00 126.00 L 520.00 126.00 L 519.00 125.00 L 504.00 125.00 L 493.00 129.00 Z M 613.00 658.00 L 614.00 657.00 L 615.00 658.00 L 614.00 659.00 Z M 448.00 482.00 L 449.00 481.00 L 450.00 482.00 L 449.00 483.00 Z M 433.00 422.00 L 434.00 421.00 L 435.00 422.00 L 434.00 423.00 Z M 432.00 421.00 L 433.00 420.00 L 434.00 421.00 L 433.00 422.00 Z M 411.00 387.00 L 412.00 388.00 L 412.00 390.00 L 411.00 391.00 L 410.00 390.00 L 410.00 388.00 Z M 537.00 293.00 L 538.00 292.00 L 539.00 293.00 L 538.00 294.00 Z M 536.00 291.00 L 537.00 290.00 L 538.00 292.00 L 537.00 293.00 Z M 603.00 279.00 L 604.00 278.00 L 605.00 279.00 L 604.00 280.00 Z M 514.00 261.00 L 515.00 260.00 L 516.00 261.00 L 515.00 262.00 Z M 512.00 258.00 L 515.00 260.00 L 513.00 261.00 L 515.00 262.00 L 516.00 261.00 L 522.00 267.00 L 521.00 269.00 L 522.00 268.00 L 526.00 272.00 L 525.00 274.00 L 526.00 273.00 L 530.00 278.00 L 528.00 279.00 L 530.00 278.00 L 534.00 284.00 L 533.00 286.00 L 534.00 285.00 L 537.00 289.00 L 536.00 290.00 L 536.00 292.00 L 537.00 293.00 L 536.00 294.00 L 537.00 293.00 L 538.00 295.00 L 539.00 294.00 L 542.00 299.00 L 541.00 301.00 L 540.00 300.00 L 541.00 301.00 L 540.00 302.00 L 542.00 300.00 L 545.00 305.00 L 546.00 310.00 L 548.00 313.00 L 547.00 318.00 L 548.00 316.00 L 549.00 317.00 L 550.00 325.00 L 551.00 326.00 L 551.00 342.00 L 550.00 343.00 L 550.00 347.00 L 547.00 353.00 L 547.00 355.00 L 545.00 357.00 L 544.00 360.00 L 538.00 367.00 L 535.00 369.00 L 534.00 368.00 L 535.00 369.00 L 530.00 373.00 L 520.00 377.00 L 515.00 377.00 L 514.00 376.00 L 512.00 376.00 L 514.00 376.00 L 515.00 377.00 L 514.00 378.00 L 510.00 378.00 L 509.00 377.00 L 510.00 376.00 L 509.00 377.00 L 504.00 377.00 L 503.00 376.00 L 498.00 375.00 L 491.00 371.00 L 480.00 359.00 L 478.00 355.00 L 479.00 354.00 L 479.00 352.00 L 478.00 354.00 L 476.00 351.00 L 475.00 345.00 L 474.00 344.00 L 474.00 339.00 L 473.00 338.00 L 474.00 322.00 L 476.00 318.00 L 476.00 315.00 L 477.00 314.00 L 479.00 306.00 L 484.00 297.00 L 484.00 295.00 L 486.00 293.00 L 491.00 283.00 L 500.00 270.00 Z M 485.00 209.00 L 486.00 208.00 L 487.00 209.00 L 486.00 210.00 Z" fill="var(--band-fill, currentColor)" fill-rule="evenodd" />
<path d="M 306.00 888.00 L 308.00 890.00 L 308.00 893.00 L 307.00 894.00 L 308.00 896.00 L 307.00 898.00 L 309.00 899.00 L 309.00 902.00 L 308.00 903.00 L 307.00 901.00 L 307.00 903.00 L 309.00 903.00 L 312.00 907.00 L 315.00 907.00 L 316.00 908.00 L 328.00 908.00 L 329.00 909.00 L 328.00 910.00 L 326.00 910.00 L 332.00 910.00 L 330.00 910.00 L 329.00 909.00 L 330.00 908.00 L 337.00 908.00 L 338.00 909.00 L 337.00 910.00 L 334.00 910.00 L 359.00 910.00 L 360.00 911.00 L 362.00 910.00 L 364.00 911.00 L 365.00 910.00 L 383.00 910.00 L 384.00 911.00 L 385.00 910.00 L 389.00 910.00 L 390.00 911.00 L 391.00 910.00 L 392.00 911.00 L 393.00 910.00 L 443.00 910.00 L 444.00 911.00 L 445.00 910.00 L 455.00 910.00 L 456.00 911.00 L 458.00 911.00 L 459.00 910.00 L 465.00 910.00 L 466.00 911.00 L 467.00 910.00 L 476.00 910.00 L 475.00 909.00 L 476.00 908.00 L 480.00 908.00 L 481.00 909.00 L 480.00 910.00 L 478.00 910.00 L 483.00 910.00 L 484.00 911.00 L 485.00 910.00 L 593.00 910.00 L 594.00 911.00 L 596.00 910.00 L 679.00 910.00 L 681.00 911.00 L 682.00 910.00 L 697.00 910.00 L 692.00 910.00 L 691.00 909.00 L 692.00 908.00 L 707.00 908.00 L 708.00 907.00 L 711.00 907.00 L 714.00 904.00 L 715.00 902.00 L 715.00 898.00 L 716.00 897.00 L 716.00 873.00 L 715.00 872.00 L 716.00 871.00 L 716.00 866.00 L 715.00 865.00 L 715.00 861.00 L 711.00 856.00 L 695.00 856.00 L 694.00 855.00 L 693.00 856.00 L 687.00 856.00 L 686.00 855.00 L 684.00 855.00 L 683.00 856.00 L 681.00 856.00 L 680.00 855.00 L 679.00 856.00 L 671.00 856.00 L 670.00 855.00 L 669.00 856.00 L 665.00 856.00 L 664.00 855.00 L 663.00 856.00 L 662.00 855.00 L 661.00 856.00 L 660.00 855.00 L 659.00 856.00 L 657.00 856.00 L 656.00 855.00 L 655.00 856.00 L 647.00 856.00 L 646.00 855.00 L 645.00 856.00 L 639.00 856.00 L 638.00 855.00 L 637.00 856.00 L 623.00 856.00 L 622.00 855.00 L 620.00 856.00 L 617.00 856.00 L 616.00 855.00 L 615.00 856.00 L 614.00 855.00 L 613.00 856.00 L 612.00 855.00 L 611.00 856.00 L 583.00 856.00 L 582.00 855.00 L 580.00 856.00 L 577.00 856.00 L 576.00 855.00 L 575.00 856.00 L 574.00 855.00 L 573.00 856.00 L 569.00 856.00 L 568.00 855.00 L 567.00 856.00 L 565.00 855.00 L 564.00 856.00 L 561.00 856.00 L 560.00 855.00 L 559.00 856.00 L 558.00 855.00 L 556.00 856.00 L 551.00 856.00 L 550.00 855.00 L 549.00 856.00 L 545.00 856.00 L 544.00 855.00 L 543.00 856.00 L 542.00 855.00 L 541.00 856.00 L 540.00 855.00 L 539.00 856.00 L 535.00 856.00 L 534.00 855.00 L 532.00 855.00 L 531.00 856.00 L 527.00 856.00 L 526.00 855.00 L 524.00 856.00 L 519.00 856.00 L 518.00 855.00 L 517.00 856.00 L 512.00 856.00 L 511.00 855.00 L 508.00 855.00 L 507.00 856.00 L 506.00 855.00 L 505.00 856.00 L 504.00 855.00 L 503.00 856.00 L 502.00 855.00 L 498.00 855.00 L 497.00 856.00 L 496.00 855.00 L 495.00 856.00 L 494.00 855.00 L 492.00 855.00 L 491.00 856.00 L 487.00 856.00 L 486.00 855.00 L 484.00 855.00 L 483.00 856.00 L 481.00 856.00 L 480.00 855.00 L 479.00 856.00 L 478.00 855.00 L 476.00 855.00 L 475.00 856.00 L 473.00 856.00 L 472.00 855.00 L 471.00 856.00 L 470.00 855.00 L 468.00 855.00 L 467.00 856.00 L 465.00 856.00 L 464.00 855.00 L 463.00 856.00 L 462.00 855.00 L 460.00 855.00 L 459.00 856.00 L 457.00 856.00 L 456.00 855.00 L 455.00 856.00 L 447.00 856.00 L 446.00 855.00 L 445.00 856.00 L 444.00 855.00 L 443.00 856.00 L 441.00 856.00 L 440.00 855.00 L 439.00 856.00 L 438.00 855.00 L 436.00 855.00 L 435.00 856.00 L 430.00 856.00 L 429.00 855.00 L 427.00 856.00 L 425.00 856.00 L 424.00 855.00 L 423.00 856.00 L 422.00 855.00 L 420.00 856.00 L 417.00 856.00 L 416.00 855.00 L 415.00 856.00 L 414.00 855.00 L 413.00 856.00 L 412.00 855.00 L 411.00 856.00 L 407.00 856.00 L 406.00 855.00 L 404.00 855.00 L 403.00 856.00 L 402.00 855.00 L 401.00 856.00 L 400.00 855.00 L 399.00 856.00 L 398.00 855.00 L 396.00 856.00 L 389.00 856.00 L 388.00 855.00 L 387.00 856.00 L 383.00 856.00 L 382.00 855.00 L 380.00 856.00 L 375.00 856.00 L 374.00 855.00 L 373.00 856.00 L 367.00 856.00 L 366.00 855.00 L 362.00 855.00 L 361.00 856.00 L 360.00 855.00 L 359.00 856.00 L 358.00 855.00 L 357.00 856.00 L 353.00 856.00 L 352.00 855.00 L 351.00 856.00 L 349.00 855.00 L 348.00 856.00 L 347.00 855.00 L 345.00 856.00 L 344.00 855.00 L 343.00 856.00 L 342.00 855.00 L 340.00 855.00 L 338.00 856.00 L 336.00 855.00 L 335.00 856.00 L 334.00 855.00 L 330.00 855.00 L 329.00 856.00 L 328.00 855.00 L 327.00 856.00 L 326.00 855.00 L 322.00 855.00 L 321.00 856.00 L 320.00 855.00 L 316.00 855.00 L 312.00 857.00 L 309.00 861.00 L 309.00 870.00 L 308.00 871.00 L 309.00 872.00 L 308.00 874.00 L 309.00 875.00 L 308.00 876.00 L 308.00 880.00 L 307.00 881.00 L 308.00 880.00 L 309.00 882.00 L 308.00 883.00 L 308.00 888.00 L 307.00 889.00 Z M 689.00 909.00 L 690.00 908.00 L 691.00 909.00 L 690.00 910.00 Z M 681.00 909.00 L 682.00 908.00 L 688.00 908.00 L 689.00 909.00 L 688.00 910.00 L 682.00 910.00 Z M 674.00 909.00 L 675.00 908.00 L 680.00 908.00 L 681.00 909.00 L 680.00 910.00 L 675.00 910.00 Z M 666.00 909.00 L 667.00 908.00 L 673.00 908.00 L 674.00 909.00 L 673.00 910.00 L 667.00 910.00 Z M 659.00 909.00 L 660.00 908.00 L 665.00 908.00 L 666.00 909.00 L 665.00 910.00 L 660.00 910.00 Z M 650.00 909.00 L 651.00 908.00 L 656.00 908.00 L 657.00 909.00 L 656.00 910.00 L 651.00 910.00 Z M 643.00 909.00 L 644.00 908.00 L 648.00 908.00 L 649.00 909.00 L 648.00 910.00 L 644.00 910.00 Z M 627.00 909.00 L 628.00 908.00 L 640.00 908.00 L 641.00 909.00 L 640.00 910.00 L 628.00 910.00 Z M 619.00 909.00 L 620.00 908.00 L 623.00 908.00 L 624.00 909.00 L 623.00 910.00 L 620.00 910.00 Z M 610.00 909.00 L 611.00 908.00 L 616.00 908.00 L 617.00 909.00 L 616.00 910.00 L 611.00 910.00 Z M 607.00 909.00 L 608.00 908.00 L 610.00 909.00 L 609.00 910.00 Z M 604.00 909.00 L 605.00 908.00 L 607.00 909.00 L 606.00 910.00 Z M 597.00 909.00 L 598.00 908.00 L 600.00 908.00 L 601.00 909.00 L 600.00 910.00 L 598.00 910.00 Z M 594.00 909.00 L 595.00 908.00 L 597.00 909.00 L 596.00 910.00 Z M 587.00 909.00 L 588.00 908.00 L 591.00 908.00 L 592.00 909.00 L 591.00 910.00 L 588.00 910.00 Z M 583.00 909.00 L 584.00 908.00 L 585.00 909.00 L 584.00 910.00 Z M 579.00 909.00 L 580.00 908.00 L 582.00 908.00 L 583.00 909.00 L 582.00 910.00 L 580.00 910.00 Z M 571.00 909.00 L 572.00 908.00 L 575.00 908.00 L 576.00 909.00 L 575.00 910.00 L 572.00 910.00 Z M 563.00 909.00 L 564.00 908.00 L 568.00 908.00 L 569.00 909.00 L 568.00 910.00 L 564.00 910.00 Z M 557.00 909.00 L 558.00 908.00 L 560.00 908.00 L 561.00 909.00 L 560.00 910.00 L 558.00 910.00 Z M 554.00 909.00 L 555.00 908.00 L 557.00 909.00 L 556.00 910.00 Z M 547.00 909.00 L 548.00 908.00 L 552.00 908.00 L 553.00 909.00 L 552.00 910.00 L 548.00 910.00 Z M 539.00 909.00 L 540.00 908.00 L 544.00 908.00 L 545.00 909.00 L 544.00 910.00 L 540.00 910.00 Z M 531.00 909.00 L 532.00 908.00 L 535.00 908.00 L 536.00 909.00 L 535.00 910.00 L 532.00 910.00 Z M 527.00 909.00 L 528.00 908.00 L 529.00 909.00 L 528.00 910.00 Z M 525.00 909.00 L 526.00 908.00 L 527.00 909.00 L 526.00 910.00 Z M 523.00 909.00 L 524.00 908.00 L 525.00 909.00 L 524.00 910.00 Z M 514.00 909.00 L 515.00 908.00 L 520.00 908.00 L 521.00 909.00 L 520.00 910.00 L 515.00 910.00 Z M 507.00 909.00 L 508.00 908.00 L 512.00 908.00 L 513.00 909.00 L 512.00 910.00 L 508.00 910.00 Z M 498.00 909.00 L 499.00 908.00 L 504.00 908.00 L 505.00 909.00 L 504.00 910.00 L 499.00 910.00 Z M 491.00 909.00 L 492.00 908.00 L 496.00 908.00 L 497.00 909.00 L 496.00 910.00 L 492.00 910.00 Z M 483.00 909.00 L 484.00 908.00 L 487.00 908.00 L 488.00 909.00 L 487.00 910.00 L 484.00 910.00 Z M 471.00 909.00 L 472.00 908.00 L 474.00 909.00 L 473.00 910.00 Z M 467.00 909.00 L 468.00 908.00 L 470.00 908.00 L 471.00 909.00 L 470.00 910.00 L 468.00 910.00 Z M 459.00 909.00 L 460.00 908.00 L 464.00 908.00 L 465.00 909.00 L 464.00 910.00 L 460.00 910.00 Z M 451.00 909.00 L 452.00 908.00 L 456.00 908.00 L 457.00 909.00 L 456.00 910.00 L 452.00 910.00 Z M 443.00 909.00 L 444.00 908.00 L 450.00 908.00 L 451.00 909.00 L 450.00 910.00 L 444.00 910.00 Z M 437.00 909.00 L 438.00 908.00 L 440.00 908.00 L 441.00 909.00 L 440.00 910.00 L 438.00 910.00 Z M 435.00 909.00 L 436.00 908.00 L 437.00 909.00 L 436.00 910.00 Z M 426.00 909.00 L 427.00 908.00 L 432.00 908.00 L 433.00 909.00 L 432.00 910.00 L 427.00 910.00 Z M 420.00 909.00 L 421.00 908.00 L 424.00 908.00 L 425.00 909.00 L 424.00 910.00 L 421.00 910.00 Z M 411.00 909.00 L 412.00 908.00 L 416.00 908.00 L 417.00 909.00 L 416.00 910.00 L 412.00 910.00 Z M 402.00 909.00 L 403.00 908.00 L 410.00 908.00 L 411.00 909.00 L 410.00 910.00 L 403.00 910.00 Z M 394.00 909.00 L 395.00 908.00 L 400.00 908.00 L 401.00 909.00 L 400.00 910.00 L 395.00 910.00 Z M 389.00 909.00 L 390.00 908.00 L 393.00 908.00 L 394.00 909.00 L 393.00 910.00 L 390.00 910.00 Z M 379.00 909.00 L 380.00 908.00 L 383.00 908.00 L 384.00 909.00 L 383.00 910.00 L 380.00 910.00 Z M 375.00 909.00 L 376.00 908.00 L 377.00 909.00 L 376.00 910.00 Z M 373.00 909.00 L 374.00 908.00 L 375.00 909.00 L 374.00 910.00 Z M 362.00 909.00 L 363.00 908.00 L 368.00 908.00 L 369.00 909.00 L 368.00 910.00 L 363.00 910.00 Z M 355.00 909.00 L 356.00 908.00 L 361.00 908.00 L 362.00 909.00 L 361.00 910.00 L 356.00 910.00 Z M 347.00 909.00 L 348.00 908.00 L 352.00 908.00 L 353.00 909.00 L 352.00 910.00 L 348.00 910.00 Z M 338.00 909.00 L 339.00 908.00 L 346.00 908.00 L 347.00 909.00 L 346.00 910.00 L 339.00 910.00 Z M 307.00 889.00 L 308.00 888.00 L 309.00 889.00 L 308.00 890.00 Z M 328.00 832.00 L 329.00 833.00 L 329.00 832.00 Z M 448.00 568.00 L 449.00 569.00 L 449.00 568.00 Z M 491.00 128.00 L 492.00 129.00 L 491.00 130.00 L 488.00 131.00 L 480.00 138.00 L 479.00 138.00 L 473.00 146.00 L 472.00 145.00 L 473.00 146.00 L 469.00 153.00 L 468.00 159.00 L 467.00 160.00 L 466.00 170.00 L 465.00 171.00 L 464.00 170.00 L 464.00 171.00 L 466.00 172.00 L 466.00 174.00 L 467.00 175.00 L 467.00 180.00 L 468.00 181.00 L 469.00 186.00 L 472.00 192.00 L 474.00 194.00 L 473.00 196.00 L 472.00 195.00 L 473.00 197.00 L 474.00 195.00 L 476.00 198.00 L 475.00 199.00 L 476.00 198.00 L 482.00 204.00 L 481.00 205.00 L 482.00 204.00 L 485.00 206.00 L 484.00 207.00 L 485.00 206.00 L 486.00 207.00 L 485.00 209.00 L 486.00 211.00 L 470.00 223.00 L 466.00 227.00 L 464.00 226.00 L 465.00 227.00 L 459.00 233.00 L 457.00 232.00 L 458.00 233.00 L 450.00 241.00 L 449.00 240.00 L 450.00 241.00 L 445.00 246.00 L 445.00 247.00 L 443.00 248.00 L 443.00 249.00 L 438.00 254.00 L 438.00 255.00 L 428.00 267.00 L 422.00 276.00 L 419.00 283.00 L 417.00 285.00 L 417.00 287.00 L 415.00 289.00 L 415.00 291.00 L 412.00 296.00 L 411.00 301.00 L 408.00 307.00 L 408.00 310.00 L 407.00 311.00 L 407.00 314.00 L 405.00 319.00 L 405.00 323.00 L 404.00 324.00 L 404.00 330.00 L 403.00 331.00 L 403.00 357.00 L 404.00 358.00 L 404.00 364.00 L 405.00 365.00 L 405.00 369.00 L 404.00 370.00 L 403.00 369.00 L 404.00 370.00 L 405.00 369.00 L 406.00 370.00 L 406.00 373.00 L 411.00 386.00 L 410.00 388.00 L 409.00 387.00 L 410.00 388.00 L 410.00 390.00 L 411.00 391.00 L 412.00 390.00 L 414.00 393.00 L 413.00 395.00 L 414.00 394.00 L 416.00 396.00 L 416.00 398.00 L 418.00 400.00 L 421.00 406.00 L 427.00 414.00 L 433.00 420.00 L 432.00 421.00 L 433.00 423.00 L 435.00 422.00 L 438.00 425.00 L 438.00 439.00 L 437.00 440.00 L 433.00 440.00 L 432.00 441.00 L 426.00 441.00 L 425.00 440.00 L 423.00 440.00 L 425.00 441.00 L 424.00 442.00 L 422.00 442.00 L 417.00 445.00 L 412.00 453.00 L 412.00 455.00 L 411.00 456.00 L 411.00 463.00 L 409.00 464.00 L 411.00 463.00 L 412.00 464.00 L 412.00 467.00 L 414.00 471.00 L 421.00 478.00 L 425.00 480.00 L 430.00 480.00 L 431.00 481.00 L 433.00 480.00 L 448.00 480.00 L 449.00 481.00 L 448.00 482.00 L 449.00 484.00 L 450.00 482.00 L 453.00 486.00 L 453.00 488.00 L 455.00 492.00 L 455.00 495.00 L 456.00 496.00 L 456.00 503.00 L 457.00 504.00 L 457.00 530.00 L 456.00 531.00 L 456.00 541.00 L 455.00 542.00 L 455.00 549.00 L 454.00 550.00 L 454.00 556.00 L 453.00 557.00 L 452.00 566.00 L 451.00 567.00 L 450.00 574.00 L 448.00 578.00 L 448.00 581.00 L 446.00 585.00 L 446.00 588.00 L 445.00 589.00 L 442.00 599.00 L 440.00 600.00 L 441.00 602.00 L 439.00 605.00 L 437.00 612.00 L 433.00 619.00 L 432.00 618.00 L 433.00 620.00 L 431.00 623.00 L 431.00 625.00 L 429.00 627.00 L 419.00 646.00 L 416.00 648.00 L 417.00 649.00 L 411.00 658.00 L 409.00 660.00 L 408.00 659.00 L 409.00 660.00 L 408.00 662.00 L 402.00 669.00 L 401.00 668.00 L 402.00 669.00 L 401.00 671.00 L 399.00 672.00 L 399.00 673.00 L 391.00 682.00 L 389.00 681.00 L 390.00 683.00 L 374.00 698.00 L 373.00 698.00 L 368.00 705.00 L 368.00 714.00 L 369.00 715.00 L 368.00 717.00 L 369.00 716.00 L 372.00 720.00 L 380.00 725.00 L 385.00 730.00 L 386.00 732.00 L 386.00 736.00 L 387.00 737.00 L 385.00 742.00 L 379.00 749.00 L 378.00 749.00 L 374.00 753.00 L 372.00 752.00 L 373.00 753.00 L 369.00 757.00 L 368.00 757.00 L 354.00 769.00 L 353.00 768.00 L 354.00 769.00 L 349.00 774.00 L 348.00 773.00 L 349.00 775.00 L 345.00 779.00 L 344.00 778.00 L 345.00 779.00 L 341.00 784.00 L 335.00 796.00 L 335.00 798.00 L 333.00 802.00 L 333.00 806.00 L 332.00 807.00 L 332.00 829.00 L 331.00 830.00 L 332.00 831.00 L 332.00 835.00 L 331.00 836.00 L 330.00 835.00 L 336.00 840.00 L 687.00 840.00 L 691.00 836.00 L 691.00 834.00 L 692.00 833.00 L 692.00 813.00 L 691.00 812.00 L 691.00 806.00 L 688.00 798.00 L 688.00 795.00 L 684.00 787.00 L 678.00 778.00 L 669.00 769.00 L 670.00 768.00 L 669.00 769.00 L 663.00 763.00 L 650.00 753.00 L 651.00 752.00 L 650.00 753.00 L 648.00 752.00 L 639.00 743.00 L 639.00 741.00 L 638.00 740.00 L 638.00 738.00 L 639.00 737.00 L 638.00 732.00 L 639.00 730.00 L 644.00 725.00 L 648.00 723.00 L 654.00 718.00 L 655.00 719.00 L 654.00 717.00 L 657.00 711.00 L 656.00 710.00 L 656.00 706.00 L 653.00 701.00 L 640.00 689.00 L 641.00 688.00 L 640.00 689.00 L 621.00 669.00 L 615.00 661.00 L 614.00 656.00 L 613.00 658.00 L 599.00 637.00 L 588.00 615.00 L 588.00 613.00 L 582.00 600.00 L 582.00 598.00 L 578.00 588.00 L 579.00 584.00 L 578.00 586.00 L 576.00 582.00 L 576.00 579.00 L 574.00 575.00 L 573.00 567.00 L 571.00 562.00 L 571.00 557.00 L 570.00 556.00 L 570.00 551.00 L 569.00 550.00 L 569.00 544.00 L 568.00 543.00 L 568.00 534.00 L 567.00 533.00 L 567.00 504.00 L 568.00 503.00 L 568.00 496.00 L 569.00 495.00 L 570.00 488.00 L 573.00 483.00 L 574.00 484.00 L 573.00 483.00 L 576.00 480.00 L 596.00 480.00 L 603.00 477.00 L 610.00 469.00 L 611.00 464.00 L 612.00 463.00 L 612.00 455.00 L 611.00 454.00 L 611.00 452.00 L 605.00 444.00 L 601.00 442.00 L 599.00 442.00 L 598.00 440.00 L 597.00 441.00 L 594.00 441.00 L 593.00 440.00 L 592.00 441.00 L 591.00 440.00 L 587.00 440.00 L 586.00 439.00 L 586.00 424.00 L 596.00 415.00 L 596.00 414.00 L 603.00 406.00 L 612.00 390.00 L 612.00 388.00 L 615.00 383.00 L 615.00 381.00 L 616.00 380.00 L 617.00 381.00 L 616.00 380.00 L 616.00 378.00 L 617.00 377.00 L 617.00 374.00 L 619.00 369.00 L 620.00 358.00 L 621.00 357.00 L 621.00 333.00 L 620.00 332.00 L 620.00 325.00 L 619.00 324.00 L 619.00 320.00 L 618.00 319.00 L 617.00 311.00 L 616.00 310.00 L 613.00 299.00 L 610.00 294.00 L 610.00 292.00 L 604.00 281.00 L 605.00 279.00 L 604.00 278.00 L 603.00 279.00 L 602.00 278.00 L 600.00 273.00 L 596.00 267.00 L 586.00 255.00 L 586.00 254.00 L 574.00 241.00 L 575.00 240.00 L 574.00 241.00 L 565.00 233.00 L 566.00 232.00 L 565.00 233.00 L 561.00 229.00 L 560.00 229.00 L 557.00 226.00 L 558.00 225.00 L 557.00 226.00 L 542.00 215.00 L 537.00 210.00 L 537.00 209.00 L 543.00 203.00 L 544.00 203.00 L 544.00 202.00 L 552.00 193.00 L 556.00 185.00 L 557.00 179.00 L 558.00 178.00 L 558.00 163.00 L 557.00 162.00 L 556.00 155.00 L 550.00 144.00 L 551.00 143.00 L 550.00 144.00 L 543.00 136.00 L 536.00 131.00 L 524.00 126.00 L 520.00 126.00 L 519.00 125.00 L 504.00 125.00 L 493.00 129.00 Z M 613.00 658.00 L 614.00 657.00 L 615.00 658.00 L 614.00 659.00 Z M 448.00 482.00 L 449.00 481.00 L 450.00 482.00 L 449.00 483.00 Z M 433.00 422.00 L 434.00 421.00 L 435.00 422.00 L 434.00 423.00 Z M 432.00 421.00 L 433.00 420.00 L 434.00 421.00 L 433.00 422.00 Z M 411.00 387.00 L 412.00 388.00 L 412.00 390.00 L 411.00 391.00 L 410.00 390.00 L 410.00 388.00 Z M 537.00 293.00 L 538.00 292.00 L 539.00 293.00 L 538.00 294.00 Z M 536.00 291.00 L 537.00 290.00 L 538.00 292.00 L 537.00 293.00 Z M 603.00 279.00 L 604.00 278.00 L 605.00 279.00 L 604.00 280.00 Z M 514.00 261.00 L 515.00 260.00 L 516.00 261.00 L 515.00 262.00 Z M 512.00 258.00 L 515.00 260.00 L 513.00 261.00 L 515.00 262.00 L 516.00 261.00 L 522.00 267.00 L 521.00 269.00 L 522.00 268.00 L 526.00 272.00 L 525.00 274.00 L 526.00 273.00 L 530.00 278.00 L 528.00 279.00 L 530.00 278.00 L 534.00 284.00 L 533.00 286.00 L 534.00 285.00 L 537.00 289.00 L 536.00 290.00 L 536.00 292.00 L 537.00 293.00 L 536.00 294.00 L 537.00 293.00 L 538.00 295.00 L 539.00 294.00 L 542.00 299.00 L 541.00 301.00 L 540.00 300.00 L 541.00 301.00 L 540.00 302.00 L 542.00 300.00 L 545.00 305.00 L 546.00 310.00 L 548.00 313.00 L 547.00 318.00 L 548.00 316.00 L 549.00 317.00 L 550.00 325.00 L 551.00 326.00 L 551.00 342.00 L 550.00 343.00 L 550.00 347.00 L 547.00 353.00 L 547.00 355.00 L 545.00 357.00 L 544.00 360.00 L 538.00 367.00 L 535.00 369.00 L 534.00 368.00 L 535.00 369.00 L 530.00 373.00 L 520.00 377.00 L 515.00 377.00 L 514.00 376.00 L 512.00 376.00 L 514.00 376.00 L 515.00 377.00 L 514.00 378.00 L 510.00 378.00 L 509.00 377.00 L 510.00 376.00 L 509.00 377.00 L 504.00 377.00 L 503.00 376.00 L 498.00 375.00 L 491.00 371.00 L 480.00 359.00 L 478.00 355.00 L 479.00 354.00 L 479.00 352.00 L 478.00 354.00 L 476.00 351.00 L 475.00 345.00 L 474.00 344.00 L 474.00 339.00 L 473.00 338.00 L 474.00 322.00 L 476.00 318.00 L 476.00 315.00 L 477.00 314.00 L 479.00 306.00 L 484.00 297.00 L 484.00 295.00 L 486.00 293.00 L 491.00 283.00 L 500.00 270.00 Z M 485.00 209.00 L 486.00 208.00 L 487.00 209.00 L 486.00 210.00 Z" fill="none" stroke="var(--icon-colorcolor, currentColor)" stroke-width="2.0" stroke-linejoin="round" stroke-linecap="round" />
</g>
</svg>