<svg xmlns="http://www.w3.org/2000/svg" width="512" height="512" viewBox="0 0 512 512"><style>:root{--band-fill:#111;--band-stroke:#fff;--icon-color:#fff;}</style>
<g transform="rotate(300.00,256.00,256.00)">
<polygon points="144.00,29.15 368.00,29.15 303.00,164.15 209.00,164.15" fill="var(--band-fill)" /><polygon points="144.00,29.15 368.00,29.15 303.00,164.15 209.00,164.15" fill="none" stroke="var(--band-stroke)" stroke-width="6" stroke-linejoin="round" />
<defs>
  <clipPath id="trapClip">
    <polygon points="144.00,29.15 368.00,29.15 303.00,164.15 209.00,164.15" />
  </clipPath>
</defs>
<g clip-path="url(#trapClip)">
  <path d="M 255.02 145.85 L 257.12 145.85 L 258.52 145.43 L 260.20 144.45 L 261.32 143.19 L 262.30 141.37 L 262.58 138.43 L 261.60 135.63 L 260.20 133.95 L 265.24 129.48 L 269.85 124.58 L 274.47 118.70 L 276.15 116.18 L 276.29 115.48 L 238.37 77.69 L 233.89 83.43 L 231.93 87.21 L 230.95 89.87 L 229.97 94.77 L 229.97 100.23 L 230.53 103.87 L 233.05 111.14 L 237.53 118.70 L 243.82 126.40 L 248.72 131.30 L 251.80 133.81 L 250.40 135.63 L 249.70 137.17 L 249.42 138.43 L 249.56 140.81 L 250.40 142.77 L 251.52 144.17 L 253.48 145.43 Z M 278.67 111.14 L 280.07 108.34 L 281.75 102.19 L 282.17 97.15 L 281.61 91.97 L 280.35 87.77 L 278.81 84.55 L 275.45 79.65 L 271.39 74.90 L 270.83 73.78 L 270.83 72.52 L 273.07 70.00 L 275.31 68.32 L 276.57 67.76 L 277.83 66.08 L 277.97 63.70 L 277.41 62.44 L 276.01 61.18 L 272.37 60.34 L 272.09 59.64 L 272.37 56.14 L 273.77 51.80 L 275.31 49.14 L 277.69 46.49 L 280.49 44.67 L 280.49 43.13 L 279.79 42.71 L 279.79 41.45 L 281.61 41.03 L 283.29 39.49 L 283.85 38.09 L 283.85 36.27 L 283.57 35.71 L 282.73 35.15 L 229.27 35.15 L 228.71 35.43 L 228.15 36.27 L 228.15 38.23 L 228.57 39.35 L 230.11 40.89 L 232.21 41.59 L 232.21 42.71 L 231.51 43.13 L 231.51 44.67 L 234.17 46.35 L 236.83 49.28 L 238.37 52.08 L 239.63 56.14 L 239.91 58.10 L 239.63 60.34 L 236.69 60.90 L 235.43 61.60 L 234.31 63.00 L 234.03 65.52 L 234.59 66.78 L 235.29 67.62 L 236.97 68.46 L 240.75 71.68 L 241.17 72.38 L 241.17 73.50 Z" fill="var(--icon-color)" fill-rule="evenodd" />
</g>
</g>
</svg>
