<svg xmlns="http://www.w3.org/2000/svg" width="512" height="512" viewBox="0 0 512 512"><style>:root{--band-fill:#111;--band-stroke:#fff;--icon-color:#fff;}</style>
<g transform="rotate(0.00,256.00,256.00)">
<polygon points="144.00,29.15 368.00,29.15 303.00,164.15 209.00,164.15" fill="var(--band-fill)" /><polygon points="144.00,29.15 368.00,29.15 303.00,164.15 209.00,164.15" fill="none" stroke="var(--band-stroke)" stroke-width="6" stroke-linejoin="round" />
<defs>
  <clipPath id="trapClip">
    <polygon points="144.00,29.15 368.00,29.15 303.00,164.15 209.00,164.15" />
  </clipPath>
</defs>
<g clip-path="url(#trapClip)">
  <path d="M 255.54 132.44 L 257.66 132.35 L 260.07 131.89 L 261.91 131.24 L 263.85 130.22 L 266.99 127.64 L 268.38 125.88 L 269.67 123.57 L 270.69 120.61 L 271.06 117.84 L 270.97 115.63 L 270.51 113.22 L 269.03 109.71 L 267.73 107.77 L 265.89 105.83 L 263.39 103.98 L 267.64 102.78 L 269.95 101.67 L 270.69 100.84 L 270.97 99.92 L 270.60 98.35 L 269.86 97.61 L 268.66 97.24 L 243.25 97.24 L 242.05 97.70 L 241.22 98.72 L 241.12 100.38 L 242.05 101.67 L 244.17 102.69 L 248.61 103.98 L 246.39 105.55 L 244.54 107.40 L 243.06 109.53 L 241.96 111.93 L 241.12 115.07 L 241.03 118.67 L 241.31 120.43 L 242.05 122.83 L 242.60 124.13 L 244.17 126.62 L 247.22 129.58 L 248.98 130.69 L 250.83 131.52 L 253.14 132.16 Z M 246.95 95.30 L 265.24 95.21 L 265.24 90.49 L 265.89 83.84 L 267.46 76.27 L 269.30 70.44 L 271.98 64.62 L 273.55 62.22 L 275.03 61.57 L 275.59 61.11 L 275.86 60.56 L 278.91 60.56 L 279.38 59.17 L 279.28 57.42 L 279.47 56.31 L 280.58 54.18 L 282.24 52.61 L 285.57 50.40 L 287.60 47.90 L 288.62 45.31 L 288.80 42.82 L 288.25 40.32 L 287.04 38.20 L 284.83 36.26 L 283.26 35.52 L 281.50 35.15 L 230.41 35.15 L 228.28 35.70 L 227.17 36.26 L 226.25 36.91 L 224.77 38.48 L 223.66 40.60 L 223.20 43.10 L 223.57 45.87 L 224.49 47.99 L 225.23 49.10 L 226.90 50.76 L 229.76 52.61 L 231.42 54.18 L 232.53 56.31 L 232.72 59.73 L 232.99 60.47 L 236.04 60.56 L 236.69 61.39 L 238.26 62.04 L 238.63 62.41 L 240.57 65.64 L 242.42 69.71 L 244.27 75.16 L 245.84 81.99 L 246.67 88.65 L 246.76 95.21 Z" fill="var(--icon-color)" fill-rule="evenodd" />
</g>
</g>
</svg>
